# xmcd
# 
# Track frame offsets:
#     182
#     16742
#     40490
#     53045
#     67092
#     94867
#     108262
#     119175
#     139065
#     157675
#     170067
#     186160
#     196947
#     219767
#     236480
#     248132
#     272405
#     282465
#     298992
#     311600
# 
# Disc length: 4410
# 
# Revision: 5
# Processed by: cddbd v1.5.2PL0 Copyright (c) Steve Scherf et al.
# Submitted via: fre:ac v1.0.17
# 
DISCID=29113814
DTITLE=Various Artist - Ultimate Blues Collection - Still Got The Blues
DYEAR=1997
DGENRE=Blues
TTITLE0=Stevie Ray Vaughan - Pride and Joy
TTITLE1=Muddy Waters - Mannish Boy
TTITLE2=Fleetwood Mac - Black Magic Woman
TTITLE3=Howlin' Wolf - Smokestack Lightnin'
TTITLE4=Gary Moore - Still Got The Blues (For You)
TTITLE5=Taj Mahal - Statesboro Blues
TTITLE6=Fabulous Thunderbirds - Walkin' To My Baby
TTITLE7=Little Milton - Stormy Monday
TTITLE8=Robert Cray - Smoking Gun
TTITLE9=T. Bone Walker - Papa Ain't Salty
TTITLE10=John Mayall's Blues Breakers (Feat. Eric Clapton) - All Your Love
TTITLE11=Little Walter - Just Your Fool
TTITLE12=B.B. King - The Thrill Has Gone
TTITLE13=John Hammond - I've Got Love If You Want It
TTITLE14=Sonny Boy Williamson - Don't Start Me Talking
TTITLE15=Rory Gallagher - Calling Card
TTITLE16=John Lee Hooker - Dimples
TTITLE17=Sonny Terry - Johnny Winter - Willie Dixo - I Think I Got The Blues
TTITLE18=Jimmy Rogers - Walking By Myself
TTITLE19=ZZ Top - A Fool For Your Stockings
EXTD=
EXTT0=
EXTT1=
EXTT2=
EXTT3=
EXTT4=
EXTT5=
EXTT6=
EXTT7=
EXTT8=
EXTT9=
EXTT10=
EXTT11=
EXTT12=
EXTT13=
EXTT14=
EXTT15=
EXTT16=
EXTT17=
EXTT18=
EXTT19=
PLAYORDER=
